<?xml version="1.0" encoding="UTF-8"?>
<svg version="1.1" xmlns="http://www.w3.org/2000/svg" width="256" height="256">
<path d="M0 0 C42.57 0 85.14 0 129 0 C129 5.28 129 10.56 129 16 C139.56 16 150.12 16 161 16 C161 21.28 161 26.56 161 32 C166.28 32 171.56 32 177 32 C177 42.56 177 53.12 177 64 C181.95 64 186.9 64 192 64 C192 85.45 192 106.9 192 129 C187.05 129 182.1 129 177 129 C177 134.28 177 139.56 177 145 C171.72 145 166.44 145 161 145 C161 150.28 161 155.56 161 161 C97.31 161 33.62 161 -32 161 C-32 155.72 -32 150.44 -32 145 C-37.28 145 -42.56 145 -48 145 C-48 139.72 -48 134.44 -48 129 C-53.28 129 -58.56 129 -64 129 C-64 107.55 -64 86.1 -64 64 C-58.72 64 -53.44 64 -48 64 C-48 53.44 -48 42.88 -48 32 C-43.05 31.67 -38.1 31.34 -33 31 C-33 26.05 -33 21.1 -33 16 C-22.11 16 -11.22 16 0 16 C0 10.72 0 5.44 0 0 Z M1 33 C1 37.95 1 42.9 1 48 C42.91 48 84.82 48 128 48 C128 43.38 128 38.76 128 34 C86.09 33.67 44.18 33.34 1 33 Z " fill="#331F17" transform="translate(64,47)"/>
<path d="M0 0 C5.05061509 0.00377075 10.10121058 0.00241112 15.15182495 -0.00180268 C73.77070403 -0.04960012 73.77070403 -0.04960012 102.49557495 1.12856841 C102.49557495 11.35856841 102.49557495 21.58856841 102.49557495 32.12856841 C97.54557495 32.12856841 92.59557495 32.12856841 87.49557495 32.12856841 C87.49557495 27.17856841 87.49557495 22.22856841 87.49557495 17.12856841 C71.32557495 17.12856841 55.15557495 17.12856841 38.49557495 17.12856841 C38.49557495 43.19856841 38.49557495 69.26856841 38.49557495 96.12856841 C22.65557495 96.12856841 6.81557495 96.12856841 -9.50442505 96.12856841 C-9.50442505 75.33856841 -9.50442505 54.54856841 -9.50442505 33.12856841 C-14.78442505 33.12856841 -20.06442505 33.12856841 -25.50442505 33.12856841 C-25.50442505 27.84856841 -25.50442505 22.56856841 -25.50442505 17.12856841 C-41.34442505 17.12856841 -57.18442505 17.12856841 -73.50442505 17.12856841 C-73.50442505 22.07856841 -73.50442505 27.02856841 -73.50442505 32.12856841 C-78.78442505 32.12856841 -84.06442505 32.12856841 -89.50442505 32.12856841 C-89.50442505 48.29856841 -89.50442505 64.46856841 -89.50442505 81.12856841 C-84.22442505 81.12856841 -78.94442505 81.12856841 -73.50442505 81.12856841 C-73.50442505 86.40856841 -73.50442505 91.68856841 -73.50442505 97.12856841 C-57.66442505 97.12856841 -41.82442505 97.12856841 -25.50442505 97.12856841 C-25.50442505 102.40856841 -25.50442505 107.68856841 -25.50442505 113.12856841 C-46.62442505 113.12856841 -67.74442505 113.12856841 -89.50442505 113.12856841 C-89.50442505 107.84856841 -89.50442505 102.56856841 -89.50442505 97.12856841 C-94.78442505 97.12856841 -100.06442505 97.12856841 -105.50442505 97.12856841 C-105.50442505 91.84856841 -105.50442505 86.56856841 -105.50442505 81.12856841 C-110.78442505 81.12856841 -116.06442505 81.12856841 -121.50442505 81.12856841 C-121.50442505 59.67856841 -121.50442505 38.22856841 -121.50442505 16.12856841 C-110.94442505 16.12856841 -100.38442505 16.12856841 -89.50442505 16.12856841 C-89.50442505 11.17856841 -89.50442505 6.22856841 -89.50442505 1.12856841 C-59.68515072 -0.21709991 -29.84197592 -0.0248976 0 0 Z " fill="#FDD014" transform="translate(121.50442504882813,94.87143158912659)"/>
<path d="M0 0 C15.84 0 31.68 0 48 0 C48 5.28 48 10.56 48 16 C53.28 16 58.56 16 64 16 C64 36.79 64 57.58 64 79 C79.84 79 95.68 79 112 79 C112 57.88 112 36.76 112 15 C127.84 15 143.68 15 160 15 C160 36.45 160 57.9 160 80 C144.16 80 128.32 80 112 80 C112 85.28 112 90.56 112 96 C90.88 96 69.76 96 48 96 C48 90.72 48 85.44 48 80 C32.16 80 16.32 80 0 80 C0 74.72 0 69.44 0 64 C-5.28 64 -10.56 64 -16 64 C-16 47.83 -16 31.66 -16 15 C-10.72 15 -5.44 15 0 15 C0 10.05 0 5.1 0 0 Z " fill="#785501" transform="translate(48,112)"/>
<path d="M0 0 C0.33 0 0.66 0 1 0 C1 5.28 1 10.56 1 16 C6.28 16 11.56 16 17 16 C17 26.56 17 37.12 17 48 C21.95 48 26.9 48 32 48 C32 69.45 32 90.9 32 113 C27.05 113 22.1 113 17 113 C17 118.28 17 123.56 17 129 C11.72 129 6.44 129 1 129 C1 134.28 1 139.56 1 145 C-20.45 145 -41.9 145 -64 145 C-64 139.72 -64 134.44 -64 129 C-48.16 129 -32.32 129 -16 129 C-16 107.55 -16 86.1 -16 64 C-31.84 64 -47.68 64 -64 64 C-64 59.05 -64 54.1 -64 49 C-47.83 49 -31.66 49 -15 49 C-15 53.95 -15 58.9 -15 64 C-10.05 64 -5.1 64 0 64 C0 53.77 0 43.54 0 33 C0.33 33 0.66 33 1 33 C1 37.95 1 42.9 1 48 C5.95 48 10.9 48 16 48 C16 37.77 16 27.54 16 17 C10.72 17 5.44 17 0 17 C0 11.39 0 5.78 0 0 Z " fill="#7B5801" transform="translate(224,63)"/>
<path d="M0 0 C15.84 0 31.68 0 48 0 C48 5.28 48 10.56 48 16 C37.44 16 26.88 16 16 16 C16 20.62 16 25.24 16 30 C12.38671875 29.96744792 8.7734375 29.93489583 5.16015625 29.90234375 C2.13701597 29.63467451 2.13701597 29.63467451 1 31 C21.79 31 42.58 31 64 31 C64 52.12 64 73.24 64 95 C48.16 95 32.32 95 16 95 C16 74.21 16 53.42 16 32 C10.72 32 5.44 32 0 32 C0 26.72 0 21.44 0 16 C-15.84 16 -31.68 16 -48 16 C-48 15.67 -48 15.34 -48 15 C-32.16 15 -16.32 15 0 15 C0 10.05 0 5.1 0 0 Z " fill="#664900" transform="translate(96,96)"/>
<path d="M0 0 C2.74882543 -0.0002253 5.49765009 -0.00165034 8.24647522 -0.00289917 C13.95297747 -0.00469417 19.65946657 -0.00238651 25.3659668 0.00244141 C31.86262948 0.00787611 38.35926071 0.00611608 44.85592264 0.000615 C50.54107991 -0.00399705 56.226228 -0.00452801 61.91138655 -0.00194633 C65.25984586 -0.00042669 68.6082794 -0.00048812 71.95673943 -0.00348282 C91.36354761 -0.01704072 110.70317757 0.45757472 130.09765625 1.1328125 C130.09765625 11.3628125 130.09765625 21.5928125 130.09765625 32.1328125 C125.14765625 32.1328125 120.19765625 32.1328125 115.09765625 32.1328125 C115.09765625 27.1828125 115.09765625 22.2328125 115.09765625 17.1328125 C98.92765625 17.1328125 82.75765625 17.1328125 66.09765625 17.1328125 C66.09765625 22.0828125 66.09765625 27.0328125 66.09765625 32.1328125 C45.30765625 32.1328125 24.51765625 32.1328125 3.09765625 32.1328125 C3.09765625 27.1828125 3.09765625 22.2328125 3.09765625 17.1328125 C3.42765625 17.1328125 3.75765625 17.1328125 4.09765625 17.1328125 C4.09765625 21.7528125 4.09765625 26.3728125 4.09765625 31.1328125 C8.71765625 31.1328125 13.33765625 31.1328125 18.09765625 31.1328125 C18.09765625 26.5128125 18.09765625 21.8928125 18.09765625 17.1328125 C28.65765625 17.1328125 39.21765625 17.1328125 50.09765625 17.1328125 C50.09765625 11.8528125 50.09765625 6.5728125 50.09765625 1.1328125 C34.25765625 1.1328125 18.41765625 1.1328125 2.09765625 1.1328125 C2.09765625 6.0828125 2.09765625 11.0328125 2.09765625 16.1328125 C-18.69234375 16.4628125 -39.48234375 16.7928125 -60.90234375 17.1328125 C-60.90234375 11.8528125 -60.90234375 6.5728125 -60.90234375 1.1328125 C-40.59374931 0.37405445 -20.32515007 -0.01816158 0 0 Z " fill="#F9DA43" transform="translate(93.90234375,94.8671875)"/>
<path d="M0 0 C15.84 0 31.68 0 48 0 C48 20.79 48 41.58 48 63 C32.16 63 16.32 63 0 63 C0 42.21 0 21.42 0 0 Z " fill="#551C77" transform="translate(48,112)"/>
<path d="M0 0 C9.9 0 19.8 0 30 0 C30 5.28 30 10.56 30 16 C35.28 16 40.56 16 46 16 C45.505 14.515 45.505 14.515 45 13 C44.88259878 11.315429 44.82493455 9.62611123 44.8125 7.9375 C44.79832031 7.05964844 44.78414062 6.18179688 44.76953125 5.27734375 C45 3 45 3 47 1 C47 5.62 47 10.24 47 15 C57.23 15 67.46 15 78 15 C78 20.61 78 26.22 78 32 C83.28 32 88.56 32 94 32 C94 42.23 94 52.46 94 63 C89.05 63 84.1 63 79 63 C79 58.05 79 53.1 79 48 C68.11 48 57.22 48 46 48 C46 42.72 46 37.44 46 32 C30.16 32 14.32 32 -2 32 C-2 31.67 -2 31.34 -2 31 C2.95 30.67 7.9 30.34 13 30 C12.979375 28.4325 12.95875 26.865 12.9375 25.25 C12.89216245 21.80434631 13.14778004 19.40887983 14 16 C9.38 16 4.76 16 0 16 C0 10.72 0 5.44 0 0 Z " fill="#351E17" transform="translate(146,48)"/>
<path d="M0 0 C15.84 0 31.68 0 48 0 C48 15.84 48 31.68 48 48 C32.16 48 16.32 48 0 48 C0 32.16 0 16.32 0 0 Z " fill="#2C076A" transform="translate(160,127)"/>
<path d="M0 0 C26.73 0 53.46 0 81 0 C80.67 1.32 80.34 2.64 80 4 C79.93209325 6.24907152 79.91500016 8.50001605 79.9375 10.75 C79.958125 12.8125 79.97875 14.875 80 17 C74.72 17 69.44 17 64 17 C64 11.72 64 6.44 64 1 C54.1 1 44.2 1 34 1 C34 6.28 34 11.56 34 17 C38.62 17 43.24 17 48 17 C48.09765625 27.83984375 48.09765625 27.83984375 48 31 C47.505 31.495 47.505 31.495 47 32 C63.335 32.495 63.335 32.495 80 33 C80 33.33 80 33.66 80 34 C38.42 34 -3.16 34 -46 34 C-46 33.67 -46 33.34 -46 33 C-30.82 33 -15.64 33 0 33 C0 22.11 0 11.22 0 0 Z " fill="#2D1813" transform="translate(112,47)"/>
<path d="M0 0 C5.28 0 10.56 0 16 0 C16 15.84 16 31.68 16 48 C31.84 48 47.68 48 64 48 C64 53.28 64 58.56 64 64 C48.16 64 32.32 64 16 64 C16 59.05 16 54.1 16 49 C10.72 49 5.44 49 0 49 C0 32.83 0 16.66 0 0 Z " fill="#3D2A03" transform="translate(32,127)"/>
<path d="M0 0 C0 10.23 0 20.46 0 31 C-15.84 31 -31.68 31 -48 31 C-48 20.77 -48 10.54 -48 0 C-31.85650246 -1.12302592 -16.155342 -0.92980386 0 0 Z " fill="#250751" transform="translate(96,144)"/>
<path d="M0 0 C5.28 0 10.56 0 16 0 C16.76981939 10.77747139 17 21.12497556 17 32 C-4.45 32 -25.9 32 -48 32 C-48 26.72 -48 21.44 -48 16 C-32.16 16 -16.32 16 0 16 C0 10.72 0 5.44 0 0 Z " fill="#AE7D04" transform="translate(208,176)"/>
<path d="M0 0 C5.28 0 10.56 0 16 0 C16 4.95 16 9.9 16 15 C37.12 15 58.24 15 80 15 C80 20.28 80 25.56 80 31 C75.05 31 70.1 31 65 31 C65 26.05 65 21.1 65 16 C48.83 16 32.66 16 16 16 C16 20.95 16 25.9 16 31 C-4.79 31 -25.58 31 -47 31 C-47 26.05 -47 21.1 -47 16 C-46.67 16 -46.34 16 -46 16 C-46 20.62 -46 25.24 -46 30 C-41.38 30 -36.76 30 -32 30 C-32 25.38 -32 20.76 -32 16 C-21.44 16 -10.88 16 0 16 C0 10.72 0 5.44 0 0 Z " fill="#F5B102" transform="translate(144,96)"/>
<path d="M0 0 C5.28 0 10.56 0 16 0 C16 5.28 16 10.56 16 16 C31.84 16 47.68 16 64 16 C64 21.28 64 26.56 64 32 C42.88 32 21.76 32 0 32 C0 21.44 0 10.88 0 0 Z " fill="#8A6202" transform="translate(32,176)"/>
<path d="M0 0 C15.84 0 31.68 0 48 0 C48 5.28 48 10.56 48 16 C37.44 16 26.88 16 16 16 C16 20.62 16 25.24 16 30 C12.38671875 29.96744792 8.7734375 29.93489583 5.16015625 29.90234375 C2.13701597 29.63467451 2.13701597 29.63467451 1 31 C21.79 31 42.58 31 64 31 C64 31.33 64 31.66 64 32 C42.88 32 21.76 32 0 32 C0 26.72 0 21.44 0 16 C-15.84 16 -31.68 16 -48 16 C-48 15.67 -48 15.34 -48 15 C-32.16 15 -16.32 15 0 15 C0 10.05 0 5.1 0 0 Z " fill="#C48F05" transform="translate(96,96)"/>
<path d="M0 0 C5.28 0 10.56 0 16 0 C16 21.45 16 42.9 16 65 C10.72 65 5.44 65 0 65 C0 43.55 0 22.1 0 0 Z " fill="#281510" transform="translate(0,111)"/>
<path d="M0 0 C4.95 0 9.9 0 15 0 C15 21.12 15 42.24 15 64 C10.05 64 5.1 64 0 64 C0 42.88 0 21.76 0 0 Z " fill="#23110C" transform="translate(241,112)"/>
<path d="M0 0 C15.84 0 31.68 0 48 0 C48 5.61 48 11.22 48 17 C41.32479118 17.02464296 34.6496086 17.04283267 27.97436523 17.05493164 C25.70157409 17.05997325 23.4287862 17.06680637 21.15600586 17.07543945 C17.89696449 17.08751261 14.63796583 17.09322987 11.37890625 17.09765625 C10.35599991 17.10281754 9.33309357 17.10797882 8.27919006 17.11329651 C7.33829025 17.11337204 6.39739044 17.11344757 5.42797852 17.11352539 C4.59524918 17.115746 3.76251984 17.11796661 2.90455627 17.12025452 C1 17 1 17 0 16 C0 10.72 0 5.44 0 0 Z " fill="#531C73" transform="translate(160,127)"/>
<path d="M0 0 C15.84 0 31.68 0 48 0 C48 5.28 48 10.56 48 16 C32.16 16 16.32 16 0 16 C0 10.72 0 5.44 0 0 Z " fill="#EBAA02" transform="translate(112,175)"/>
<path d="M0 0 C5.28 0 10.56 0 16 0 C16 15.51 16 31.02 16 47 C5.44 47 -5.12 47 -16 47 C-16 46.67 -16 46.34 -16 46 C-10.72 46 -5.44 46 0 46 C0 30.82 0 15.64 0 0 Z " fill="#382700" transform="translate(144,128)"/>
<path d="M0 0 C15.84 0 31.68 0 48 0 C48 5.28 48 10.56 48 16 C32.49 16 16.98 16 1 16 C0.67 10.72 0.34 5.44 0 0 Z " fill="#473100" transform="translate(160,175)"/>
<path d="M0 0 C5.28 0 10.56 0 16 0 C16 15.51 16 31.02 16 47 C10.72 47 5.44 47 0 47 C0 31.49 0 15.98 0 0 Z " fill="#3C2902" transform="translate(208,128)"/>
<path d="M0 0 C5.28 0 10.56 0 16 0 C16 15.51 16 31.02 16 47 C10.72 47 5.44 47 0 47 C0 31.49 0 15.98 0 0 Z " fill="#312104" transform="translate(96,128)"/>
<path d="M0 0 C15.84 0 31.68 0 48 0 C48 4.95 48 9.9 48 15 C32.16 15 16.32 15 0 15 C0 10.05 0 5.1 0 0 Z " fill="#372600" transform="translate(160,112)"/>
<path d="M0 0 C15.84 0 31.68 0 48 0 C48 4.95 48 9.9 48 15 C32.16 15 16.32 15 0 15 C0 10.05 0 5.1 0 0 Z " fill="#332301" transform="translate(48,112)"/>
<path d="M0 0 C15.84 0 31.68 0 48 0 C48 4.95 48 9.9 48 15 C32.16 15 16.32 15 0 15 C0 10.05 0 5.1 0 0 Z " fill="#2D1913" transform="translate(64,64)"/>
<path d="M0 0 C4.95 0 9.9 0 15 0 C15 15.51 15 31.02 15 47 C10.05 47 5.1 47 0 47 C0 31.49 0 15.98 0 0 Z " fill="#322202" transform="translate(33,128)"/>
<path d="M0 0 C4.95 0 9.9 0 15 0 C15.77028014 5.99884837 16.09919133 11.71610934 15.87890625 17.75390625 C15.85529526 18.54022934 15.83168427 19.32655243 15.80735779 20.13670349 C15.73167876 22.61219823 15.6472522 25.08730104 15.5625 27.5625 C15.50918301 29.25584113 15.45644355 30.94920055 15.40429688 32.64257812 C15.27619598 36.76195999 15.14025731 40.88101486 15 45 C10.05 45 5.1 45 0 45 C0 30.15 0 15.3 0 0 Z " fill="#755300" transform="translate(113,129)"/>
<path d="M0 0 C1.81242052 -0.02687279 3.62495233 -0.04633715 5.4375 -0.0625 C6.44683594 -0.07410156 7.45617187 -0.08570313 8.49609375 -0.09765625 C11 0 11 0 12 1 C12.08790975 3.29151417 12.10694038 5.58572524 12.09765625 7.87890625 C12.0962413 8.5655687 12.09482635 9.25223114 12.09336853 9.95970154 C12.08775479 12.16067801 12.07520007 14.36155409 12.0625 16.5625 C12.05748676 18.05143083 12.05292355 19.54036324 12.04882812 21.02929688 C12.03778093 24.68623075 12.02050713 28.34310558 12 32 C12.66 32 13.32 32 14 32 C14 37.61 14 43.22 14 49 C8.72 49 3.44 49 -2 49 C-2.020625 46.380625 -2.04125 43.76125 -2.0625 41.0625 C-2.071604 40.2362915 -2.08070801 39.41008301 -2.09008789 38.55883789 C-2.09723945 36.70566241 -2.0502852 34.85250692 -2 33 C-1.505 32.505 -1.505 32.505 -1 32 C-0.84028023 29.62661361 -0.7407567 27.27881728 -0.68359375 24.90234375 C-0.66281265 24.19348526 -0.64203156 23.48462677 -0.62062073 22.75428772 C-0.55505402 20.48212695 -0.4962077 18.20984736 -0.4375 15.9375 C-0.39432151 14.40037817 -0.35070745 12.8632685 -0.30664062 11.32617188 C-0.19936551 7.5509041 -0.09811863 3.7755164 0 0 Z " fill="#FDC307" transform="translate(18,143)"/>
<path d="M0 0 C1.32 0.33 2.64 0.66 4 1 C3.01 1.495 3.01 1.495 2 2 C2 5.96 2 9.92 2 14 C11.9 14 21.8 14 32 14 C32.2941742 5.62103443 32.2941742 5.62103443 31 0 C36.61 0 42.22 0 48 0 C48 10.23 48 20.46 48 31 C43.05 31 38.1 31 33 31 C33 26.05 33 21.1 33 16 C22.11 16 11.22 16 0 16 C0 10.72 0 5.44 0 0 Z " fill="#29160D" transform="translate(192,80)"/>
<path d="M0 0 C15.84 0 31.68 0 48 0 C48 5.61 48 11.22 48 17 C37.44 17 26.88 17 16 17 C16 11.72 16 6.44 16 1 C10.72 1 5.44 1 0 1 C0 0.67 0 0.34 0 0 Z " fill="#4D3123" transform="translate(64,47)"/>
<path d="M0 0 C5.28 0 10.56 0 16 0 C16 4.95 16 9.9 16 15 C37.12 15 58.24 15 80 15 C80 20.28 80 25.56 80 31 C75.05 31 70.1 31 65 31 C65 26.05 65 21.1 65 16 C43.55 16 22.1 16 0 16 C0 10.72 0 5.44 0 0 Z " fill="#DA9F07" transform="translate(144,96)"/>
<path d="M0 0 C10.56 0 21.12 0 32 0 C32 5.61 32 11.22 32 17 C21.44 17 10.88 17 0 17 C0 11.39 0 5.78 0 0 Z " fill="#F7D01F" transform="translate(112,47)"/>
<path d="M0 0 C10.56 0 21.12 0 32 0 C32 5.28 32 10.56 32 16 C21.44 16 10.88 16 0 16 C0 10.72 0 5.44 0 0 Z " fill="#342304" transform="translate(112,192)"/>
<path d="M0 0 C5.28 0 10.56 0 16 0 C16 10.56 16 21.12 16 32 C10.72 32 5.44 32 0 32 C0 21.44 0 10.88 0 0 Z " fill="#23120C" transform="translate(0,144)"/>
<path d="M0 0 C10.56 0 21.12 0 32 0 C32 5.28 32 10.56 32 16 C21.44 16 10.88 16 0 16 C0 10.72 0 5.44 0 0 Z " fill="#5C4201" transform="translate(112,96)"/>
<path d="M0 0 C5.28 0 10.56 0 16 0 C16 10.23 16 20.46 16 31 C10.72 31 5.44 31 0 31 C0 20.77 0 10.54 0 0 Z " fill="#2E086D" transform="translate(192,144)"/>
<path d="M0 0 C5.28 0 10.56 0 16 0 C16 10.23 16 20.46 16 31 C10.72 31 5.44 31 0 31 C0 20.77 0 10.54 0 0 Z " fill="#240650" transform="translate(176,144)"/>
<path d="M0 0 C5.28 0 10.56 0 16 0 C16 10.23 16 20.46 16 31 C10.72 31 5.44 31 0 31 C0 20.77 0 10.54 0 0 Z " fill="#310970" transform="translate(80,144)"/>
<path d="M0 0 C5.28 0 10.56 0 16 0 C16 10.23 16 20.46 16 31 C10.72 31 5.44 31 0 31 C0 20.77 0 10.54 0 0 Z " fill="#2D076F" transform="translate(48,144)"/>
<path d="M0 0 C1.29349365 0.00523682 2.5869873 0.01047363 3.91967773 0.01586914 C4.9496714 0.01799156 4.9496714 0.01799156 6.00047302 0.02015686 C8.20144949 0.0257706 10.40232557 0.03832532 12.60327148 0.05102539 C14.09220231 0.05603863 15.58113473 0.06060184 17.07006836 0.06469727 C20.72703954 0.07489518 24.38379265 0.0944676 28.04077148 0.11352539 C28.04077148 5.06352539 28.04077148 10.01352539 28.04077148 15.11352539 C23.64414115 15.13643777 19.24771661 15.15636373 14.85107422 15.16845703 C13.3543223 15.1734966 11.85757533 15.18032826 10.36083984 15.18896484 C8.21377341 15.20104698 6.06677186 15.2067573 3.91967773 15.21118164 C1.97943726 15.21903687 1.97943726 15.21903687 0 15.22705078 C-2.95922852 15.11352539 -2.95922852 15.11352539 -3.95922852 14.11352539 C-4.05815791 11.94871742 -4.08893952 9.78058754 -4.08422852 7.61352539 C-4.08680664 6.42758789 -4.08938477 5.24165039 -4.09204102 4.01977539 C-3.91520557 0.1501997 -3.91520557 0.1501997 0 0 Z " fill="#FED41E" transform="translate(67.959228515625,95.886474609375)"/>
<path d="M0 0 C5.28 0 10.56 0 16 0 C16 4.95 16 9.9 16 15 C47.68 15.495 47.68 15.495 80 16 C80 16.33 80 16.66 80 17 C38.42 17 -3.16 17 -46 17 C-46 16.67 -46 16.34 -46 16 C-30.82 16 -15.64 16 0 16 C0 10.72 0 5.44 0 0 Z " fill="#946728" transform="translate(112,64)"/>
<path d="M0 0 C15.84 0 31.68 0 48 0 C48 5.28 48 10.56 48 16 C32.49 16 16.98 16 1 16 C0.67 10.72 0.34 5.44 0 0 Z M2 1 C2 5.62 2 10.24 2 15 C11.57 15 21.14 15 31 15 C30.67 13.35 30.34 11.7 30 10 C31.4375 7.3125 31.4375 7.3125 33 5 C33 4.34 33 3.68 33 3 C33.99 2.67 34.98 2.34 36 2 C36 1.67 36 1.34 36 1 C24.78 1 13.56 1 2 1 Z " fill="#402B05" transform="translate(160,175)"/>
<path d="M0 0 C16.17 0 32.34 0 49 0 C48.67 1.32 48.34 2.64 48 4 C47.93209325 6.24907152 47.91500016 8.50001605 47.9375 10.75 C47.958125 12.8125 47.97875 14.875 48 17 C42.72 17 37.44 17 32 17 C32 11.72 32 6.44 32 1 C21.77 1 11.54 1 1 1 C1 6.28 1 11.56 1 17 C0.67 17 0.34 17 0 17 C0 11.39 0 5.78 0 0 Z " fill="#4F3228" transform="translate(144,47)"/>
<path d="M0 0 C4.95 0 9.9 0 15 0 C15 0.66 15 1.32 15 2 C14.01 2.33 13.02 2.66 12 3 C12 3.66 12 4.32 12 5 C12.99 5.33 13.98 5.66 15 6 C15 6.99 15 7.98 15 9 C12.5 10.6875 12.5 10.6875 10 12 C13.84841348 13.18031238 17.758279 13.33235351 21.75 13.5625 C22.44738281 13.60568359 23.14476563 13.64886719 23.86328125 13.69335938 C25.57531922 13.79889596 27.28763561 13.8998991 29 14 C29 11.69 29 9.38 29 7 C27.35 7.66 25.7 8.32 24 9 C21 3.375 21 3.375 21 0 C24.3 0 27.6 0 31 0 C31 4.95 31 9.9 31 15 C15.655 15.495 15.655 15.495 0 16 C0 10.72 0 5.44 0 0 Z " fill="#FDD622" transform="translate(17,112)"/>
<path d="M0 0 C15.84 0 31.68 0 48 0 C48 0.33 48 0.66 48 1 C37.44 1 26.88 1 16 1 C16 5.95 16 10.9 16 16 C10.72 16 5.44 16 0 16 C0 10.72 0 5.44 0 0 Z " fill="#CC9101" transform="translate(112,175)"/>
<path d="M0 0 C0.33 0 0.66 0 1 0 C1 4.95 1 9.9 1 15 C5.95 15 10.9 15 16 15 C16 10.05 16 5.1 16 0 C21.28 0 26.56 0 32 0 C32 5.28 32 10.56 32 16 C21.44 16 10.88 16 0 16 C0 10.72 0 5.44 0 0 Z " fill="#AC7D04" transform="translate(208,112)"/>
<path d="M0 0 C15.84 0 31.68 0 48 0 C48 4.95 48 9.9 48 15 C42.72 15 37.44 15 32 15 C32 10.38 32 5.76 32 1 C21.44 1 10.88 1 0 1 C0 0.67 0 0.34 0 0 Z " fill="#FEC70A" transform="translate(112,112)"/>
<path d="M0 0 C4.95 0 9.9 0 15 0 C15.7644328 10.70205917 16.12837448 21.27359938 16 32 C15.34 31.67 14.68 31.34 14 31 C13.5859375 28.05859375 13.5859375 28.05859375 13.375 24.4375 C13.26285156 22.64119141 13.26285156 22.64119141 13.1484375 20.80859375 C13.09945312 19.88175781 13.05046875 18.95492187 13 18 C8.16059395 15.58029698 6.08522941 16 0 16 C0 10.72 0 5.44 0 0 Z " fill="#B08211" transform="translate(209,176)"/>
<path d="M0 0 C0.33 0 0.66 0 1 0 C1 5.28 1 10.56 1 16 C2.65 16 4.3 16 6 16 C6.99 18.64 7.98 21.28 9 24 C10.65 23.67 12.3 23.34 14 23 C14 25.31 14 27.62 14 30 C11.41638482 30.05407567 8.83390745 30.093707 6.25 30.125 C5.52039063 30.14175781 4.79078125 30.15851563 4.0390625 30.17578125 C0.1955376 30.21072239 -2.74606772 30.17499684 -6 28 C-4.6875 26.5 -4.6875 26.5 -3 25 C-2.01 25 -1.02 25 0 25 C0 24.01 0 23.02 0 22 C-1.65 22 -3.3 22 -5 22 C-4.34 21.67 -3.68 21.34 -3 21 C-3.33 20.01 -3.66 19.02 -4 18 C-2.68 18 -1.36 18 0 18 C0 17.34 0 16.68 0 16 C-4.95 16 -9.9 16 -15 16 C-15 37.12 -15 58.24 -15 80 C-15.33 80 -15.66 80 -16 80 C-16 58.55 -16 37.1 -16 15 C-10.72 15 -5.44 15 0 15 C0 10.05 0 5.1 0 0 Z " fill="#E4BC1B" transform="translate(32,96)"/>
<path d="M0 0 C5.28 0 10.56 0 16 0 C16.33 1.65 16.66 3.3 17 5 C15.35 5.66 13.7 6.32 12 7 C12 8.32 12 9.64 12 11 C14.475 11.99 14.475 11.99 17 13 C17 13.33 17 13.66 17 14 C21.29 14.33 25.58 14.66 30 15 C29.95875 13.2675 29.9175 11.535 29.875 9.75 C29.77313037 5.47147572 30.00609999 3.98780002 32 0 C32 5.28 32 10.56 32 16 C21.44 16 10.88 16 0 16 C0 10.72 0 5.44 0 0 Z " fill="#442A20" transform="translate(80,48)"/>
<path d="M0 0 C5.28 0 10.56 0 16 0 C16 5.28 16 10.56 16 16 C10.72 16 5.44 16 0 16 C0 10.72 0 5.44 0 0 Z " fill="#C68E04" transform="translate(32,176)"/>
<path d="M0 0 C5.28 0 10.56 0 16 0 C16 5.28 16 10.56 16 16 C10.72 16 5.44 16 0 16 C0 10.72 0 5.44 0 0 Z " fill="#611B9C" transform="translate(48,128)"/>
<path d="M0 0 C5.28 0 10.56 0 16 0 C16 5.28 16 10.56 16 16 C10.72 16 5.44 16 0 16 C0 10.72 0 5.44 0 0 Z " fill="#4E312A" transform="translate(0,128)"/>
<path d="M0 0 C5.28 0 10.56 0 16 0 C16 5.28 16 10.56 16 16 C4.5 16.125 4.5 16.125 0 15 C0 10.05 0 5.1 0 0 Z " fill="#E8A702" transform="translate(96,96)"/>
<path d="M0 0 C0.33 0 0.66 0 1 0 C1 5.28 1 10.56 1 16 C2.98 15.67 4.96 15.34 7 15 C12.53191489 15.53191489 12.53191489 15.53191489 15 18 C15.59185512 22.65667144 15.74414476 27.30932066 16 32 C9.4 31.67 2.8 31.34 -4 31 C-2.68 30.67 -1.36 30.34 0 30 C0 20.1 0 10.2 0 0 Z " fill="#A27403" transform="translate(208,176)"/>
<path d="M0 0 C5.94 0 11.88 0 18 0 C17.01 0.495 17.01 0.495 16 1 C16.0721875 1.67546875 16.144375 2.3509375 16.21875 3.046875 C16.3115625 3.93890625 16.404375 4.8309375 16.5 5.75 C16.5928125 6.63171875 16.685625 7.5134375 16.78125 8.421875 C17 11 17 11 17 15 C11.39 15 5.78 15 0 15 C0 10.05 0 5.1 0 0 Z " fill="#25130C" transform="translate(64,64)"/>
<path d="M0 0 C5.28 0 10.56 0 16 0 C16 5.28 16 10.56 16 16 C11.05 16 6.1 16 1 16 C0.67 10.72 0.34 5.44 0 0 Z " fill="#FBBC06" transform="translate(208,111)"/>
<path d="M0 0 C5.61 0 11.22 0 17 0 C16.4140625 10.83984375 16.4140625 10.83984375 16 14 C12.93466836 15.53266582 9.73245728 15.10276471 6.375 15.0625 C5.66859375 15.05798828 4.9621875 15.05347656 4.234375 15.04882812 C2.48954725 15.03703875 0.744763 15.01910324 -1 15 C-1.02715383 13.25008666 -1.04646551 11.50005055 -1.0625 9.75 C-1.07410156 8.77546875 -1.08570313 7.8009375 -1.09765625 6.796875 C-1 4 -1 4 0 0 Z " fill="#25130E" transform="translate(160,64)"/>
<path d="M0 0 C4.95 0 9.9 0 15 0 C15 5.28 15 10.56 15 16 C10.05 16 5.1 16 0 16 C0 10.72 0 5.44 0 0 Z " fill="#611B9B" transform="translate(161,128)"/>
<path d="M0 0 C5.28 0 10.56 0 16 0 C16 4.95 16 9.9 16 15 C10.72 15 5.44 15 0 15 C0 10.05 0 5.1 0 0 Z " fill="#513900" transform="translate(128,64)"/>
<path d="M0 0 C5.28 0 10.56 0 16 0 C16 4.29 16 8.58 16 13 C21.28 13 26.56 13 32 13 C32 13.33 32 13.66 32 14 C27.60343827 14.02465504 23.2069128 14.04283842 18.81030273 14.05493164 C17.31355082 14.05997121 15.81680384 14.06680287 14.32006836 14.07543945 C12.17300193 14.08752159 10.02600038 14.09323191 7.87890625 14.09765625 C5.93866577 14.10551147 5.93866577 14.10551147 3.95922852 14.11352539 C1 14 1 14 0 13 C-0.14393457 8.66469082 -0.04212061 4.33842269 0 0 Z " fill="#FFDB2D" transform="translate(64,97)"/>
<path d="M0 0 C5.28 0 10.56 0 16 0 C16 4.95 16 9.9 16 15 C10.72 15 5.44 15 0 15 C0 10.05 0 5.1 0 0 Z " fill="#FBD12A" transform="translate(208,96)"/>
<path d="M0 0 C5.28 0 10.56 0 16 0 C17.125 13.75 17.125 13.75 16 16 C11.38 16 6.76 16 2 16 C0.92628988 10.63144942 0.45982292 5.45218603 0 0 Z " fill="#3A2219" transform="translate(64,48)"/>
<path d="M0 0 C4.95 0 9.9 0 15 0 C15 4.95 15 9.9 15 15 C10.73840618 17.13079691 4.59236298 16.04502317 0 16 C0 10.72 0 5.44 0 0 Z " fill="#8B6301" transform="translate(225,128)"/>
<path d="M0 0 C4.95 0 9.9 0 15 0 C15 4.95 15 9.9 15 15 C10.05 15 5.1 15 0 15 C0 10.05 0 5.1 0 0 Z " fill="#936902" transform="translate(97,176)"/>
<path d="M0 0 C5.28 0 10.56 0 16 0 C16 4.62 16 9.24 16 14 C10.72 14 5.44 14 0 14 C0 9.38 0 4.76 0 0 Z " fill="#D49701" transform="translate(144,177)"/>
<path d="M0 0 C5.28 0 10.56 0 16 0 C16 4.62 16 9.24 16 14 C13.29817708 13.96744792 10.59635417 13.93489583 7.89453125 13.90234375 C4.62396939 13.9339911 4.62396939 13.9339911 0 15 C0 10.05 0 5.1 0 0 Z " fill="#FED623" transform="translate(160,96)"/>
<path d="M0 0 C13.75 -0.125 13.75 -0.125 16 1 C16 5.29 16 9.58 16 14 C10.72 14 5.44 14 0 14 C0 9.38 0 4.76 0 0 Z " fill="#FECA0E" transform="translate(128,48)"/>
<path d="M0 0 C4.62 0 9.24 0 14 0 C14 4.62 14 9.24 14 14 C13.01 14 12.02 14 11 14 C11 14.66 11 15.32 11 16 C7.37 16 3.74 16 0 16 C0 10.72 0 5.44 0 0 Z " fill="#3C241B" transform="translate(146,48)"/>
<path d="M0 0 C3.96 0 7.92 0 12 0 C12 4.95 12 9.9 12 15 C7.05 15 2.1 15 -3 15 C-3.49230769 6.63076923 -3.49230769 6.63076923 -1 3.4375 C-0.34 2.963125 0.32 2.48875 1 2 C0.67 1.34 0.34 0.68 0 0 Z " fill="#5E4300" transform="translate(100,192)"/>
<path d="M0 0 C5.28 0 10.56 0 16 0 C16 0.33 16 0.66 16 1 C11.05 1 6.1 1 1 1 C1 5.95 1 10.9 1 16 C16.51 16 32.02 16 48 16 C48 16.33 48 16.66 48 17 C34.14 17.33 20.28 17.66 6 18 C5.34 19.65 4.68 21.3 4 23 C3.01 23 2.02 23 1 23 C1 25.97 1 28.94 1 32 C5.95 32 10.9 32 16 32 C16 32.33 16 32.66 16 33 C10.72 33 5.44 33 0 33 C0 27.72 0 22.44 0 17 C-15.84 17 -31.68 17 -48 17 C-48 16.67 -48 16.34 -48 16 C-32.16 16 -16.32 16 0 16 C0 10.72 0 5.44 0 0 Z " fill="#715002" transform="translate(96,175)"/>
<path d="M0 0 C0.33 0 0.66 0 1 0 C1 5.28 1 10.56 1 16 C6.28 16 11.56 16 17 16 C17 26.56 17 37.12 17 48 C21.95 48 26.9 48 32 48 C32 48.33 32 48.66 32 49 C27.05 49 22.1 49 17 49 C17 69.79 17 90.58 17 112 C16.67 112 16.34 112 16 112 C16 91.21 16 70.42 16 49 C10.72 49 5.44 49 0 49 C0 43.72 0 38.44 0 33 C0.33 33 0.66 33 1 33 C1 37.95 1 42.9 1 48 C5.95 48 10.9 48 16 48 C16 37.77 16 27.54 16 17 C10.72 17 5.44 17 0 17 C0 11.39 0 5.78 0 0 Z " fill="#624E30" transform="translate(224,63)"/>
<path d="M0 0 C5.61 0 11.22 0 17 0 C17 0.66 17 1.32 17 2 C12.05 2 7.1 2 2 2 C2.185625 4.02125 2.37125 6.0425 2.5625 8.125 C3.10653868 15.52997089 2.73075531 22.60250777 2 30 C5.96 30 9.92 30 14 30 C14 25.05 14 20.1 14 15 C14.33 15 14.66 15 15 15 C15 20.28 15 25.56 15 31 C10.05 31 5.1 31 0 31 C0 20.77 0 10.54 0 0 Z " fill="#261612" transform="translate(16,80)"/>
<path d="M0 0 C-0.33 0.66 -0.66 1.32 -1 2 C-0.01 1.67 0.98 1.34 2 1 C2.33 1.66 2.66 2.32 3 3 C3.99 2.67 4.98 2.34 6 2 C6.33 2.99 6.66 3.98 7 5 C6.67 5.33 6.34 5.66 6 6 C11.94 6.33 17.88 6.66 24 7 C24 7.33 24 7.66 24 8 C13.11 8 2.22 8 -9 8 C-8.34 7.67 -7.68 7.34 -7 7 C-7 4.69 -7 2.38 -7 0 C-2.25 -1.125 -2.25 -1.125 0 0 Z " fill="#996E03" transform="translate(41,200)"/>
<path d="M0 0 C2.97 0 5.94 0 9 0 C9 4.95 9 9.9 9 15 C8.34 15 7.68 15 7 15 C6.67 13.02 6.34 11.04 6 9 C5.01 8.67 4.02 8.34 3 8 C2.67 6.35 2.34 4.7 2 3 C1.34 3 0.68 3 0 3 C0 2.01 0 1.02 0 0 Z " fill="#3E251E" transform="translate(213,65)"/>
<path d="M0 0 C1.32 0.33 2.64 0.66 4 1 C3.01 1.495 3.01 1.495 2 2 C2 5.96 2 9.92 2 14 C10.91 14 19.82 14 29 14 C29 14.33 29 14.66 29 15 C19.43 15 9.86 15 0 15 C0 10.05 0 5.1 0 0 Z " fill="#1D0A0E" transform="translate(192,80)"/>
<path d="M0 0 C0.66 1.32 1.32 2.64 2 4 C0.68 4 -0.64 4 -2 4 C-1.814375 4.9075 -1.62875 5.815 -1.4375 6.75 C-1.04265379 9.68314324 -1.05308428 11.2644657 -2 14 C-0.68 14.33 0.64 14.66 2 15 C-3.28 15 -8.56 15 -14 15 C-14 14.67 -14 14.34 -14 14 C-12.35 14 -10.7 14 -9 14 C-8.67 13.34 -8.34 12.68 -8 12 C-8 12.66 -8 13.32 -8 14 C-6.35 14 -4.7 14 -3 14 C-3 12.35 -3 10.7 -3 9 C-3.66 9 -4.32 9 -5 9 C-4.74438677 6.6568787 -4.40729228 4.32156597 -4 2 C-3.34 1.67 -2.68 1.34 -2 1 C-1.34 1.33 -0.68 1.66 0 2 C0 1.34 0 0.68 0 0 Z " fill="#44156A" transform="translate(190,129)"/>
<path d="M0 0 C2.97 0.495 2.97 0.495 6 1 C5.34 2.65 4.68 4.3 4 6 C3.01 6 2.02 6 1 6 C1 8.97 1 11.94 1 15 C5.95 15 10.9 15 16 15 C16 15.33 16 15.66 16 16 C10.72 16 5.44 16 0 16 C0 10.72 0 5.44 0 0 Z " fill="#684A00" transform="translate(96,192)"/>
<path d="M0 0 C0.66 0 1.32 0 2 0 C2 4.95 2 9.9 2 15 C-3.28 15 -8.56 15 -14 15 C-14 14.67 -14 14.34 -14 14 C-9.38 13.67 -4.76 13.34 0 13 C-0.2784375 10.6178125 -0.2784375 10.6178125 -0.5625 8.1875 C-0.94845472 4.88544294 -1.06671952 3.20015856 0 0 Z " fill="#FCD413" transform="translate(158,112)"/>
<path d="M0 0 C0.33 0.66 0.66 1.32 1 2 C1.66 2 2.32 2 3 2 C3.66 2.66 4.32 3.32 5 4 C5.66 4.33 6.32 4.66 7 5 C7 6.32 7 7.64 7 9 C6.01 9.33 5.02 9.66 4 10 C4 9.34 4 8.68 4 8 C0.94152152 7.45627049 -1.88772805 7 -5 7 C-3.68221547 4.36443095 -1.85780102 2.27730447 0 0 Z " fill="#3C241B" transform="translate(205,73)"/>
<path d="M0 0 C0.33 0 0.66 0 1 0 C1 5.28 1 10.56 1 16 C1.99 16.33 2.98 16.66 4 17 C3.34 17 2.68 17 2 17 C1.67 18.65 1.34 20.3 1 22 C-0.98 22 -2.96 22 -5 22 C-4.34 21.67 -3.68 21.34 -3 21 C-3.33 20.01 -3.66 19.02 -4 18 C-2.68 18 -1.36 18 0 18 C0 12.06 0 6.12 0 0 Z " fill="#EAC320" transform="translate(32,96)"/>
<path d="M0 0 C1.32 0.33 2.64 0.66 4 1 C3.01 1.495 3.01 1.495 2 2 C2 5.96 2 9.92 2 14 C-0.28062828 10.57905758 -0.21925007 9.31812778 -0.125 5.3125 C-0.10695312 4.31863281 -0.08890625 3.32476562 -0.0703125 2.30078125 C-0.04710937 1.54152344 -0.02390625 0.78226562 0 0 Z " fill="#26130D" transform="translate(192,80)"/>
<path d="M0 0 C1.32 0.33 2.64 0.66 4 1 C5 4 5 4 4 7 C4.33 7.66 4.66 8.32 5 9 C4.01 9.33 3.02 9.66 2 10 C1.34 6.7 0.68 3.4 0 0 Z " fill="#4F1971" transform="translate(187,132)"/>
</svg>
